<svg xmlns="http://www.w3.org/2000/svg" viewBox="0 0 800 1000"><defs><radialGradient id="bg" cx="50%" cy="38%" r="75%"><stop offset="0" stop-color="#fdf6f7"/><stop offset=".6" stop-color="#f3d6de"/><stop offset="1" stop-color="#dfa9b8"/></radialGradient>
<linearGradient id="m" x1="0" y1="0" x2="1" y2="1"><stop offset="0" stop-color="#ffffff"/><stop offset=".35" stop-color="#cfd2d9"/><stop offset=".7" stop-color="#8b909b"/><stop offset="1" stop-color="#eef0f4"/></linearGradient>
<radialGradient id="g" cx="35%" cy="30%" r="80%"><stop offset="0" stop-color="#ffffff"/><stop offset=".5" stop-color="#d9ecff"/><stop offset="1" stop-color="#8fb6e6"/></radialGradient>
<radialGradient id="glow" cx="50%" cy="50%" r="50%"><stop offset="0" stop-color="#ffe7b0" stop-opacity=".45"/><stop offset="1" stop-color="#ffe7b0" stop-opacity="0"/></radialGradient>
<filter id="sh" x="-30%" y="-30%" width="160%" height="160%"><feDropShadow dx="0" dy="18" stdDeviation="16" flood-color="#000" flood-opacity="0.22"/></filter></defs><rect width="800" height="1000" fill="url(#bg)"/><circle cx="400" cy="520" r="360" fill="url(#glow)"/><g filter="url(#sh)"><ellipse cx="400" cy="660" rx="175" ry="215" fill="none" stroke="url(#m)" stroke-width="36"/><ellipse cx="400" cy="660" rx="158" ry="198" fill="none" stroke="#fff" stroke-opacity=".35" stroke-width="5"/><path d="M400 290 A120 120 0 1 0 400 530 A92 92 0 1 1 400 290Z" fill="url(#m)"/><circle cx="360" cy="350" r="13" fill="url(#g)"/><circle cx="345" cy="410" r="16" fill="url(#g)"/><circle cx="362" cy="470" r="13" fill="url(#g)"/></g><path d="M116 619 Q116 641 138 641 Q116 641 116 663 Q116 641 94 641 Q116 641 116 619Z" fill="#fff" opacity="0.5"/><path d="M403 327 Q403 348 424 348 Q403 348 403 369 Q403 348 382 348 Q403 348 403 327Z" fill="#fff" opacity="0.5"/><path d="M97 331 Q97 350 116 350 Q97 350 97 369 Q97 350 78 350 Q97 350 97 331Z" fill="#fff" opacity="0.5"/><path d="M490 58 Q490 80 512 80 Q490 80 490 102 Q490 80 468 80 Q490 80 490 58Z" fill="#fff" opacity="0.8"/><path d="M538 669 Q538 683 552 683 Q538 683 538 697 Q538 683 524 683 Q538 683 538 669Z" fill="#fff" opacity="0.95"/><path d="M456 872 Q456 885 469 885 Q456 885 456 898 Q456 885 443 885 Q456 885 456 872Z" fill="#fff" opacity="0.8"/><path d="M131 214 Q131 223 140 223 Q131 223 131 232 Q131 223 122 223 Q131 223 131 214Z" fill="#fff" opacity="0.5"/><path d="M245 560 Q245 580 265 580 Q245 580 245 600 Q245 580 225 580 Q245 580 245 560Z" fill="#fff" opacity="0.5"/><path d="M646 549 Q646 565 662 565 Q646 565 646 581 Q646 565 630 565 Q646 565 646 549Z" fill="#fff" opacity="0.8"/></svg>