<svg xmlns="http://www.w3.org/2000/svg" viewBox="0 0 800 1000"><defs><radialGradient id="bg" cx="50%" cy="38%" r="75%"><stop offset="0" stop-color="#fdf6f7"/><stop offset=".6" stop-color="#f3d6de"/><stop offset="1" stop-color="#dfa9b8"/></radialGradient>
<linearGradient id="m" x1="0" y1="0" x2="1" y2="1"><stop offset="0" stop-color="#fbdcd2"/><stop offset=".35" stop-color="#e0a591"/><stop offset=".7" stop-color="#b56f5c"/><stop offset="1" stop-color="#f5cbbd"/></linearGradient>
<radialGradient id="g" cx="35%" cy="30%" r="80%"><stop offset="0" stop-color="#ffe0ea"/><stop offset=".5" stop-color="#f2a3bd"/><stop offset="1" stop-color="#b5577a"/></radialGradient>
<radialGradient id="glow" cx="50%" cy="50%" r="50%"><stop offset="0" stop-color="#ffe7b0" stop-opacity=".45"/><stop offset="1" stop-color="#ffe7b0" stop-opacity="0"/></radialGradient>
<filter id="sh" x="-30%" y="-30%" width="160%" height="160%"><feDropShadow dx="0" dy="18" stdDeviation="16" flood-color="#000" flood-opacity="0.22"/></filter></defs><rect width="800" height="1000" fill="url(#bg)"/><circle cx="400" cy="520" r="360" fill="url(#glow)"/><g filter="url(#sh)"><ellipse cx="400" cy="660" rx="175" ry="215" fill="none" stroke="url(#m)" stroke-width="36"/><ellipse cx="400" cy="660" rx="158" ry="198" fill="none" stroke="#fff" stroke-opacity=".35" stroke-width="5"/><ellipse cx="400" cy="415" rx="70" ry="88" fill="url(#g)" stroke="url(#m)" stroke-width="9"/><circle cx="288" cy="450" r="30" fill="url(#g)" stroke="url(#m)" stroke-width="7"/><circle cx="512" cy="450" r="30" fill="url(#g)" stroke="url(#m)" stroke-width="7"/><ellipse cx="380" cy="385" rx="18" ry="30" fill="#fff" opacity=".35"/></g><path d="M299 546 Q299 562 315 562 Q299 562 299 578 Q299 562 283 562 Q299 562 299 546Z" fill="#fff" opacity="0.8"/><path d="M496 463 Q496 474 507 474 Q496 474 496 485 Q496 474 485 474 Q496 474 496 463Z" fill="#fff" opacity="0.95"/><path d="M348 512 Q348 532 368 532 Q348 532 348 552 Q348 532 328 532 Q348 532 348 512Z" fill="#fff" opacity="0.8"/><path d="M668 616 Q668 636 688 636 Q668 636 668 656 Q668 636 648 636 Q668 636 668 616Z" fill="#fff" opacity="0.8"/><path d="M677 314 Q677 332 695 332 Q677 332 677 350 Q677 332 659 332 Q677 332 677 314Z" fill="#fff" opacity="0.8"/><path d="M405 725 Q405 744 424 744 Q405 744 405 763 Q405 744 386 744 Q405 744 405 725Z" fill="#fff" opacity="0.8"/><path d="M637 554 Q637 575 658 575 Q637 575 637 596 Q637 575 616 575 Q637 575 637 554Z" fill="#fff" opacity="0.95"/><path d="M641 162 Q641 181 660 181 Q641 181 641 200 Q641 181 622 181 Q641 181 641 162Z" fill="#fff" opacity="0.95"/><path d="M623 731 Q623 752 644 752 Q623 752 623 773 Q623 752 602 752 Q623 752 623 731Z" fill="#fff" opacity="0.5"/></svg>