<svg xmlns="http://www.w3.org/2000/svg" viewBox="0 0 800 1000"><defs><radialGradient id="bg" cx="50%" cy="38%" r="75%"><stop offset="0" stop-color="#6a1c40"/><stop offset=".55" stop-color="#3a0b21"/><stop offset="1" stop-color="#1a040e"/></radialGradient>
<linearGradient id="m" x1="0" y1="0" x2="1" y2="1"><stop offset="0" stop-color="#f8e7ac"/><stop offset=".35" stop-color="#dcb967"/><stop offset=".7" stop-color="#a98132"/><stop offset="1" stop-color="#f0d690"/></linearGradient>
<radialGradient id="g" cx="35%" cy="30%" r="80%"><stop offset="0" stop-color="#ffffff"/><stop offset=".5" stop-color="#d9ecff"/><stop offset="1" stop-color="#8fb6e6"/></radialGradient>
<radialGradient id="glow" cx="50%" cy="50%" r="50%"><stop offset="0" stop-color="#ffe7b0" stop-opacity=".45"/><stop offset="1" stop-color="#ffe7b0" stop-opacity="0"/></radialGradient>
<filter id="sh" x="-30%" y="-30%" width="160%" height="160%"><feDropShadow dx="0" dy="18" stdDeviation="16" flood-color="#000" flood-opacity="0.45"/></filter></defs><rect width="800" height="1000" fill="url(#bg)"/><circle cx="400" cy="520" r="360" fill="url(#glow)"/><g transform="translate(400 500) scale(1.75) translate(-400 -540)"><g filter="url(#sh)"><path d="M150 110 C170 640 630 640 650 110" fill="none" stroke="url(#m)" stroke-width="10" stroke-linecap="round" stroke-dasharray="2 9"/><polygon points="400.0,493.0 423.5,552.6 487.5,556.6 438.0,597.4 454.1,659.4 400.0,625.0 345.9,659.4 362.0,597.4 312.5,556.6 376.5,552.6" fill="url(#m)" stroke="url(#m)" stroke-width="8" stroke-linejoin="round"/><circle cx="400" cy="585" r="15" fill="url(#g)"/></g></g><path d="M290 677 Q290 691 304 691 Q290 691 290 705 Q290 691 276 691 Q290 691 290 677Z" fill="#fff" opacity="0.95"/><path d="M200 527 Q200 536 209 536 Q200 536 200 545 Q200 536 191 536 Q200 536 200 527Z" fill="#fff" opacity="0.8"/><path d="M328 826 Q328 836 338 836 Q328 836 328 846 Q328 836 318 836 Q328 836 328 826Z" fill="#fff" opacity="0.8"/><path d="M334 743 Q334 754 345 754 Q334 754 334 765 Q334 754 323 754 Q334 754 334 743Z" fill="#fff" opacity="0.5"/><path d="M343 711 Q343 722 354 722 Q343 722 343 733 Q343 722 332 722 Q343 722 343 711Z" fill="#fff" opacity="0.5"/><path d="M432 523 Q432 539 448 539 Q432 539 432 555 Q432 539 416 539 Q432 539 432 523Z" fill="#fff" opacity="0.8"/><path d="M523 339 Q523 348 532 348 Q523 348 523 357 Q523 348 514 348 Q523 348 523 339Z" fill="#fff" opacity="0.8"/><path d="M268 559 Q268 580 289 580 Q268 580 268 601 Q268 580 247 580 Q268 580 268 559Z" fill="#fff" opacity="0.8"/><path d="M145 853 Q145 872 164 872 Q145 872 145 891 Q145 872 126 872 Q145 872 145 853Z" fill="#fff" opacity="0.95"/></svg>