<svg xmlns="http://www.w3.org/2000/svg" viewBox="0 0 800 1000"><defs><radialGradient id="bg" cx="50%" cy="38%" r="75%"><stop offset="0" stop-color="#6a1c40"/><stop offset=".55" stop-color="#3a0b21"/><stop offset="1" stop-color="#1a040e"/></radialGradient>
<linearGradient id="m" x1="0" y1="0" x2="1" y2="1"><stop offset="0" stop-color="#f8e7ac"/><stop offset=".35" stop-color="#dcb967"/><stop offset=".7" stop-color="#a98132"/><stop offset="1" stop-color="#f0d690"/></linearGradient>
<radialGradient id="g" cx="35%" cy="30%" r="80%"><stop offset="0" stop-color="#ffffff"/><stop offset=".5" stop-color="#d9ecff"/><stop offset="1" stop-color="#8fb6e6"/></radialGradient>
<radialGradient id="glow" cx="50%" cy="50%" r="50%"><stop offset="0" stop-color="#ffe7b0" stop-opacity=".45"/><stop offset="1" stop-color="#ffe7b0" stop-opacity="0"/></radialGradient>
<filter id="sh" x="-30%" y="-30%" width="160%" height="160%"><feDropShadow dx="0" dy="18" stdDeviation="16" flood-color="#000" flood-opacity="0.45"/></filter></defs><rect width="800" height="1000" fill="url(#bg)"/><circle cx="400" cy="520" r="360" fill="url(#glow)"/><g transform="translate(400 500) scale(1.75) translate(-400 -600)"><g filter="url(#sh)"><ellipse cx="400" cy="540" rx="270" ry="150" fill="none" stroke="url(#m)" stroke-width="44"/><circle cx="670.0" cy="540.0" r="9" fill="url(#g)" stroke="#fff" stroke-opacity=".5" stroke-width="1.5"/><circle cx="662.2" cy="575.9" r="13" fill="url(#g)" stroke="#fff" stroke-opacity=".5" stroke-width="1.5"/><circle cx="639.1" cy="609.7" r="13" fill="url(#g)" stroke="#fff" stroke-opacity=".5" stroke-width="1.5"/><circle cx="602.1" cy="639.5" r="13" fill="url(#g)" stroke="#fff" stroke-opacity=".5" stroke-width="1.5"/><circle cx="553.4" cy="663.4" r="13" fill="url(#g)" stroke="#fff" stroke-opacity=".5" stroke-width="1.5"/><circle cx="495.7" cy="680.3" r="13" fill="url(#g)" stroke="#fff" stroke-opacity=".5" stroke-width="1.5"/><circle cx="432.5" cy="688.9" r="13" fill="url(#g)" stroke="#fff" stroke-opacity=".5" stroke-width="1.5"/><circle cx="367.5" cy="688.9" r="13" fill="url(#g)" stroke="#fff" stroke-opacity=".5" stroke-width="1.5"/><circle cx="304.3" cy="680.3" r="13" fill="url(#g)" stroke="#fff" stroke-opacity=".5" stroke-width="1.5"/><circle cx="246.6" cy="663.4" r="13" fill="url(#g)" stroke="#fff" stroke-opacity=".5" stroke-width="1.5"/><circle cx="197.9" cy="639.5" r="13" fill="url(#g)" stroke="#fff" stroke-opacity=".5" stroke-width="1.5"/><circle cx="160.9" cy="609.7" r="13" fill="url(#g)" stroke="#fff" stroke-opacity=".5" stroke-width="1.5"/><circle cx="137.8" cy="575.9" r="13" fill="url(#g)" stroke="#fff" stroke-opacity=".5" stroke-width="1.5"/><circle cx="130.0" cy="540.0" r="9" fill="url(#g)" stroke="#fff" stroke-opacity=".5" stroke-width="1.5"/><circle cx="137.8" cy="504.1" r="9" fill="url(#g)" stroke="#fff" stroke-opacity=".5" stroke-width="1.5"/><circle cx="160.9" cy="470.3" r="9" fill="url(#g)" stroke="#fff" stroke-opacity=".5" stroke-width="1.5"/><circle cx="197.9" cy="440.5" r="9" fill="url(#g)" stroke="#fff" stroke-opacity=".5" stroke-width="1.5"/><circle cx="246.6" cy="416.6" r="9" fill="url(#g)" stroke="#fff" stroke-opacity=".5" stroke-width="1.5"/><circle cx="304.3" cy="399.7" r="9" fill="url(#g)" stroke="#fff" stroke-opacity=".5" stroke-width="1.5"/><circle cx="367.5" cy="391.1" r="9" fill="url(#g)" stroke="#fff" stroke-opacity=".5" stroke-width="1.5"/><circle cx="432.5" cy="391.1" r="9" fill="url(#g)" stroke="#fff" stroke-opacity=".5" stroke-width="1.5"/><circle cx="495.7" cy="399.7" r="9" fill="url(#g)" stroke="#fff" stroke-opacity=".5" stroke-width="1.5"/><circle cx="553.4" cy="416.6" r="9" fill="url(#g)" stroke="#fff" stroke-opacity=".5" stroke-width="1.5"/><circle cx="602.1" cy="440.5" r="9" fill="url(#g)" stroke="#fff" stroke-opacity=".5" stroke-width="1.5"/><circle cx="639.1" cy="470.3" r="9" fill="url(#g)" stroke="#fff" stroke-opacity=".5" stroke-width="1.5"/><circle cx="662.2" cy="504.1" r="9" fill="url(#g)" stroke="#fff" stroke-opacity=".5" stroke-width="1.5"/></g></g><path d="M377 523 Q377 543 397 543 Q377 543 377 563 Q377 543 357 543 Q377 543 377 523Z" fill="#fff" opacity="0.5"/><path d="M579 634 Q579 652 597 652 Q579 652 579 670 Q579 652 561 652 Q579 652 579 634Z" fill="#fff" opacity="0.5"/><path d="M349 661 Q349 670 358 670 Q349 670 349 679 Q349 670 340 670 Q349 670 349 661Z" fill="#fff" opacity="0.8"/><path d="M383 106 Q383 119 396 119 Q383 119 383 132 Q383 119 370 119 Q383 119 383 106Z" fill="#fff" opacity="0.8"/><path d="M192 589 Q192 605 208 605 Q192 605 192 621 Q192 605 176 605 Q192 605 192 589Z" fill="#fff" opacity="0.5"/><path d="M720 808 Q720 819 731 819 Q720 819 720 830 Q720 819 709 819 Q720 819 720 808Z" fill="#fff" opacity="0.95"/><path d="M657 714 Q657 734 677 734 Q657 734 657 754 Q657 734 637 734 Q657 734 657 714Z" fill="#fff" opacity="0.5"/><path d="M230 565 Q230 577 242 577 Q230 577 230 589 Q230 577 218 577 Q230 577 230 565Z" fill="#fff" opacity="0.8"/><path d="M360 838 Q360 849 371 849 Q360 849 360 860 Q360 849 349 849 Q360 849 360 838Z" fill="#fff" opacity="0.95"/></svg>